<svg width="17" height="14" viewBox="0 0 17 14" fill="none" xmlns="http://www.w3.org/2000/svg">
<path d="M14.6032 0.954901C14.7056 0.85045 14.8278 0.767472 14.9626 0.710825C15.0975 0.654178 15.2422 0.625 15.3885 0.625C15.5347 0.625 15.6795 0.654178 15.8144 0.710825C15.9492 0.767472 16.0714 0.85045 16.1737 0.954901C16.6027 1.3884 16.6087 2.0889 16.1887 2.5299L7.31924 13.0149C7.21854 13.1255 7.09633 13.2144 6.96011 13.2761C6.82388 13.3378 6.67648 13.3711 6.52695 13.3739C6.37741 13.3767 6.22888 13.349 6.09042 13.2924C5.95197 13.2358 5.82652 13.1516 5.72174 13.0449L0.324738 7.5759C0.116594 7.36363 0 7.07819 0 6.7809C0 6.48361 0.116594 6.19817 0.324738 5.9859C0.427107 5.88145 0.549286 5.79847 0.684121 5.74182C0.818956 5.68518 0.963737 5.656 1.10999 5.656C1.25624 5.656 1.40102 5.68518 1.53586 5.74182C1.67069 5.79847 1.79287 5.88145 1.89524 5.9859L6.47324 10.6254L14.5732 0.987901C14.5826 0.976309 14.5926 0.965289 14.6032 0.954901Z" fill="#477A11"/>
</svg>
